<?xml version="1.0" standalone="no"?>
<!DOCTYPE svg PUBLIC "-//W3C//DTD SVG 20010904//EN"
 "http://www.w3.org/TR/2001/REC-SVG-20010904/DTD/svg10.dtd">
<svg version="1.0" xmlns="http://www.w3.org/2000/svg"
 width="398.000000pt" height="96.000000pt" viewBox="0 0 398.000000 96.000000"
 preserveAspectRatio="xMidYMid meet">
<metadata>
Created by potrace 1.15, written by Peter Selinger 2001-2017
</metadata>
<g transform="translate(0.000000,96.000000) scale(0.100000,-0.100000)"
fill="#000000" stroke="none">
<path d="M2736 938 c-14 -19 -16 -64 -16 -290 l0 -268 55 0 55 0 0 198 0 197
67 -70 c289 -301 324 -335 351 -335 51 0 52 4 52 302 l0 278 -55 0 -55 0 0
-192 -1 -193 -192 198 c-205 211 -226 225 -261 175z"/>
<path d="M10 665 l0 -285 55 0 55 0 0 115 0 115 175 0 175 0 0 -115 0 -115 55
0 55 0 0 285 0 285 -55 0 -55 0 0 -115 0 -115 -175 0 -175 0 0 115 0 115 -55
0 -55 0 0 -285z"/>
<path d="M867 936 c-46 -17 -99 -56 -127 -95 -42 -60 -50 -104 -50 -287 l0
-174 55 0 55 0 0 70 0 70 180 0 180 0 0 -70 0 -70 55 0 55 0 0 263 c0 221 -2
266 -16 285 -15 21 -21 22 -182 22 -113 -1 -179 -5 -205 -14z m293 -201 l0
-105 -180 0 -180 0 0 43 c0 61 35 117 90 145 38 19 60 22 157 22 l113 0 0
-105z"/>
<path d="M1380 665 l0 -285 55 0 55 0 0 285 0 285 -55 0 -55 0 0 -285z"/>
<path d="M1710 835 c-106 -106 -118 -115 -152 -115 l-38 0 0 -55 0 -55 38 0
c34 0 46 -9 152 -115 l115 -115 80 0 80 0 -143 143 -143 143 143 142 143 142
-80 0 -80 0 -115 -115z"/>
<path d="M2030 795 c0 -84 5 -177 11 -205 17 -79 63 -139 137 -177 l64 -33
172 0 c120 0 176 4 184 12 9 9 12 86 12 285 l0 273 -55 0 -55 0 0 -230 0 -230
-110 0 c-122 0 -159 10 -202 56 -39 42 -48 92 -48 257 l0 147 -55 0 -55 0 0
-155z"/>
<path d="M3565 926 c-60 -28 -107 -74 -138 -135 -20 -42 -22 -64 -25 -228 l-4
-183 56 0 56 0 0 70 0 70 180 0 180 0 0 -70 0 -70 55 0 55 0 0 273 c0 199 -3
276 -12 285 -8 8 -63 12 -183 12 -157 0 -174 -2 -220 -24z m305 -191 l0 -105
-181 0 -181 0 7 47 c8 56 24 90 57 120 37 35 66 42 186 42 l112 1 0 -105z"/>
<path d="M2793 255 c-59 -25 -87 -106 -63 -179 17 -53 52 -76 115 -76 43 0 57
5 78 25 37 38 41 64 10 72 -21 5 -30 0 -45 -21 -22 -29 -54 -34 -84 -12 -23
17 -27 103 -5 129 18 23 60 21 86 -3 21 -19 65 -18 65 2 0 23 -24 51 -55 64
-42 17 -61 17 -102 -1z"/>
<path d="M2250 235 c0 -22 4 -25 40 -25 l40 0 0 -105 0 -105 30 0 30 0 0 105
0 105 35 0 c31 0 35 3 35 25 l0 25 -105 0 -105 0 0 -25z"/>
<path d="M2490 130 l0 -130 105 0 105 0 0 25 c0 24 -2 25 -75 25 l-75 0 0 30
0 30 65 0 c63 0 65 1 65 25 0 24 -2 25 -65 25 -63 0 -65 1 -65 25 0 24 2 25
70 25 68 0 70 1 70 25 l0 25 -100 0 -100 0 0 -130z"/>
<path d="M2990 130 l0 -130 30 0 c30 0 30 1 30 55 l0 55 50 0 50 0 0 -55 c0
-54 0 -55 30 -55 l30 0 0 130 0 130 -30 0 c-29 0 -30 -1 -30 -50 l0 -50 -50 0
-50 0 0 50 c0 49 -1 50 -30 50 l-30 0 0 -130z"/>
<path d="M3350 130 l0 -130 95 0 c95 0 95 0 95 25 0 24 -2 25 -65 25 l-65 0 0
105 0 105 -30 0 -30 0 0 -130z"/>
<path d="M3530 235 c0 -22 4 -25 35 -25 l35 0 0 -105 0 -105 30 0 30 0 0 105
0 105 40 0 c36 0 40 3 40 25 l0 25 -105 0 -105 0 0 -25z"/>
<path d="M3770 130 l0 -130 80 0 c73 0 83 3 105 25 22 21 25 32 25 102 -1 112
-23 133 -139 133 l-71 0 0 -130z"/>
</g>
</svg>
